<svg width="28" height="28" viewBox="0 0 28 28" fill="none" xmlns="http://www.w3.org/2000/svg">
<path d="M15.1994 2.33398C16.5124 2.33615 17.1778 2.34311 17.7527 2.36022L17.9791 2.36762C18.2407 2.37692 18.4988 2.38858 18.8099 2.40317C20.0514 2.46053 20.8983 2.65692 21.642 2.94567C22.411 3.2422 23.0604 3.64275 23.7089 4.29123C24.3564 4.9397 24.757 5.59108 25.0545 6.35817C25.3422 7.10095 25.5387 7.94873 25.597 9.19025C25.6109 9.50137 25.6221 9.75943 25.6313 10.021L25.6387 10.2475C25.6557 10.8223 25.6635 11.4878 25.666 12.8008L25.6669 13.6707C25.667 13.777 25.667 13.8866 25.667 13.9998L25.6669 14.3289L25.6662 15.1989C25.664 16.5119 25.6571 17.1773 25.6399 17.7521L25.6325 17.9786C25.6233 18.2403 25.6116 18.4983 25.597 18.8094C25.5396 20.0509 25.3422 20.8977 25.0545 21.6415C24.7579 22.4105 24.3564 23.06 23.7089 23.7084C23.0604 24.3559 22.408 24.7565 21.642 25.054C20.8983 25.3418 20.0514 25.5381 18.8099 25.5965C18.4988 25.6103 18.2407 25.6217 17.9791 25.6308L17.7527 25.6381C17.1778 25.6553 16.5124 25.663 15.1994 25.6655L14.3295 25.6665C14.2232 25.6665 14.1135 25.6665 14.0003 25.6665H13.6712L12.8012 25.6656C11.4883 25.6635 10.8228 25.6565 10.248 25.6394L10.0215 25.632C9.75991 25.6227 9.50184 25.611 9.19074 25.5965C7.94921 25.5392 7.10337 25.3418 6.35866 25.054C5.59059 24.7575 4.94018 24.3559 4.29171 23.7084C3.64324 23.06 3.24366 22.4076 2.94616 21.6415C2.65741 20.8977 2.46199 20.0509 2.40366 18.8094C2.3898 18.4983 2.37849 18.2403 2.36933 17.9786L2.36199 17.7521C2.34493 17.1773 2.33714 16.5119 2.33462 15.1989L2.33447 12.8008C2.33664 11.4878 2.34358 10.8223 2.3607 10.2475L2.36811 10.021C2.37741 9.75943 2.38907 9.50137 2.40366 9.19025C2.46101 7.94775 2.65741 7.10192 2.94616 6.35817C3.24268 5.59012 3.64324 4.9397 4.29171 4.29123C4.94018 3.64275 5.59157 3.24317 6.35866 2.94567C7.10241 2.65692 7.94824 2.4615 9.19074 2.40317C9.50184 2.38932 9.75991 2.37801 10.0215 2.36886L10.248 2.36152C10.8228 2.34444 11.4883 2.33666 12.8012 2.33414L15.1994 2.33398ZM14.0003 8.1665C10.7769 8.1665 8.16699 10.7793 8.16699 13.9998C8.16699 17.2232 10.7798 19.8331 14.0003 19.8331C17.2237 19.8331 19.8337 17.2204 19.8337 13.9998C19.8337 10.7764 17.2208 8.1665 14.0003 8.1665ZM14.0003 10.4998C15.9334 10.4998 17.5003 12.0663 17.5003 13.9998C17.5003 15.9328 15.9339 17.4998 14.0003 17.4998C12.0673 17.4998 10.5003 15.9334 10.5003 13.9998C10.5003 12.0667 12.0667 10.4998 14.0003 10.4998ZM20.1253 6.4165C19.3212 6.4165 18.667 7.06973 18.667 7.87384C18.667 8.67797 19.3202 9.3322 20.1253 9.3322C20.9294 9.3322 21.5837 8.67898 21.5837 7.87384C21.5837 7.06973 20.9284 6.4155 20.1253 6.4165Z" fill="white"/>
</svg>
