<svg width="28" height="28" viewBox="0 0 28 28" fill="none" xmlns="http://www.w3.org/2000/svg">
<path d="M17.9695 24.5V16.3735H20.6905L21.0978 13.2142H17.9695V11.1973C17.9695 10.2826 18.2233 9.65923 19.535 9.65923L21.208 9.65845V6.83289C20.9186 6.79446 19.9256 6.7084 18.7703 6.7084C16.3582 6.7084 14.707 8.18064 14.707 10.8844V13.2142H11.979V16.3735H14.707V24.5H4.66667C4.02234 24.5 3.5 23.9777 3.5 23.3333V4.66667C3.5 4.02234 4.02234 3.5 4.66667 3.5H23.3333C23.9777 3.5 24.5 4.02234 24.5 4.66667V23.3333C24.5 23.9777 23.9777 24.5 23.3333 24.5H17.9695Z" fill="white"/>
</svg>
