<svg width="28" height="28" viewBox="0 0 28 28" fill="none" xmlns="http://www.w3.org/2000/svg">
<path d="M14.2846 4.6665C14.9077 4.66993 16.4667 4.68501 18.1232 4.75136L18.7105 4.77696C20.3782 4.85592 22.0446 4.99081 22.871 5.22125C23.9734 5.53095 24.8399 6.43459 25.1327 7.58004C25.599 9.39898 25.6574 12.9491 25.6646 13.8083L25.6657 13.9863V13.9988C25.6657 13.9988 25.6657 14.0031 25.6657 14.0114L25.6646 14.1894C25.6574 15.0486 25.599 18.5987 25.1327 20.4177C24.8358 21.5673 23.9693 22.471 22.871 22.7764C22.0446 23.0069 20.3782 23.1417 18.7105 23.2207L18.1232 23.2463C16.4667 23.3126 14.9077 23.3277 14.2846 23.3312L14.0111 23.3321H13.999C13.999 23.3321 13.9949 23.3321 13.9869 23.3321L13.7136 23.3312C12.3948 23.324 6.88071 23.2643 5.12697 22.7764C4.02457 22.4667 3.15811 21.5631 2.86522 20.4177C2.39894 18.5987 2.34065 15.0486 2.33337 14.1894V13.8083C2.34065 12.9491 2.39894 9.39898 2.86522 7.58004C3.16217 6.43034 4.02863 5.52671 5.12697 5.22125C6.88071 4.73327 12.3948 4.67376 13.7136 4.6665H14.2846ZM11.6657 9.9155V18.0821L18.6657 13.9988L11.6657 9.9155Z" fill="white"/>
</svg>
