<svg width="90" height="21" viewBox="0 0 90 21" fill="none" xmlns="http://www.w3.org/2000/svg">
<path fill-rule="evenodd" clip-rule="evenodd" d="M14.4737 2.44321V0H0V2.44321H6.05814V20.651H8.4156V2.44321H14.4737ZM15.7107 0H18.0134V7.32964C18.8357 5.64266 20.5353 4.88643 22.3445 4.88643C25.3599 4.88643 27.2513 7.15512 27.2513 10.7327V20.651H24.9487V11.6053C24.9487 8.66759 23.9344 7.2133 21.8511 7.2133C19.5485 7.2133 18.0134 8.75485 18.0134 11.6053V20.651H15.7107V0ZM49.0384 20.651L51.3959 12.5942L49.0384 12.5942V0H51.3959V12.5942L53.7968 12.5942L52.0835 18.2078H61.1273V20.651H49.0384ZM79.3914 0H77.0888V20.651H79.1721L79.2543 18.4404C80.0767 20.0111 81.8311 21 83.8596 21C87.6425 21 90 17.8878 90 12.9432C90 7.99861 87.6425 4.88643 83.8596 4.88643C81.9133 4.88643 80.1864 5.81717 79.3914 7.27147V0ZM83.3936 18.6731C80.8169 18.6731 79.1721 16.4626 79.1721 12.9432C79.1721 9.36565 80.8169 7.09695 83.3936 7.09695C85.943 7.09695 87.5877 9.36565 87.5877 12.9432C87.5877 16.4626 85.943 18.6731 83.3936 18.6731ZM68.2566 4.88642C65.159 4.88642 62.8838 6.777 62.3081 9.77284L64.7479 9.97645C65.1865 8.20221 66.42 7.21329 68.2566 7.21329C70.5867 7.21329 71.7654 8.49306 71.7928 11.0817L67.5439 11.9834C64.3092 12.6233 62.0614 13.4377 62.0614 16.608C62.0614 19.3712 64.3915 21 67.2972 21C69.5998 21 71.1898 19.6911 71.8203 18.2659C71.8203 20.1565 73.1086 20.651 74.5889 20.651H75.5757V18.4986H74.9727C74.3696 18.4986 74.0955 18.1787 74.0955 17.5388V11.3435C74.0955 7.21329 71.9847 4.88642 68.2566 4.88642ZM67.5987 18.8476C65.4606 18.8476 64.4737 17.8296 64.4737 16.608C64.4737 14.6197 65.9943 14.3441 67.9333 13.9926C68.0933 13.9636 68.2561 13.9341 68.4211 13.903L71.8477 13.2631V13.4667C71.8477 17.0734 69.9562 18.8186 67.5987 18.8476ZM35.3491 4.88642C31.2921 4.88642 28.6879 8.05678 28.6879 12.9432C28.6879 17.8296 31.2921 21 35.3491 21C38.1178 21 40.5849 19.1967 41.4347 16.2881L38.9676 16.0845C38.3097 17.7133 36.8842 18.6731 35.3491 18.6731C32.8546 18.6731 31.3469 16.8407 31.1276 13.6994H41.654L41.6266 12.5942C41.4073 7.12603 38.5564 4.88642 35.3491 4.88642ZM39.132 11.5471H31.1824C31.5662 8.81301 33.0465 7.21329 35.3491 7.21329C37.1035 7.21329 38.7483 8.31855 39.132 11.5471Z" fill="white"/>
</svg>
